<?xml version="1.0" encoding="UTF-8"?>
<svg xmlns="http://www.w3.org/2000/svg" viewBox="0 0 880.93 163.2">
  <defs>
    <style>
      .cls-1 {
        fill: #fff;
      }

      .cls-2 {
        fill: #92278f;
      }
    </style>
  </defs>
  <g id="Layer_9" data-name="Layer 9">
    <path class="cls-2" d="M627.23,41.77h-53.62l-14.09-39.43h-36.08l48.34,135.31h89.7l-34.25-95.88Zm-28.94,66.89l-13.82-38.67h15.98l13.82,38.67h-15.98Z"/>
    <polygon class="cls-2" points="645.78 41.76 680.04 137.65 770.76 137.65 736.5 41.76 700.42 41.76 724.32 108.65 707.82 108.65 683.92 41.76 645.78 41.76"/>
    <polygon class="cls-2" points="754.03 41.76 758.72 54.91 796.79 89.32 783.58 124.5 788.28 137.64 824.22 137.64 822.25 108.65 841.89 137.64 879 137.64 874.31 124.5 833.01 89.71 850 56.46 844.75 41.76 808.67 41.76 809.47 69.99 789.97 41.76 754.03 41.76"/>
    <path class="cls-2" d="M115.01,41.77h81.44l35.58,95.33h-42.79c0,34.8-65.98,34.8-65.98,0H13.98v-41.61s-1.03-20.43,22.68-20.43,53.61-.76,53.61-.76l24.74-32.53Z"/>
  </g>
  <g id="Layer_8" data-name="Layer 8">
    <path class="cls-1" d="M141.44,25.52S136.45,0,170.47,0h142.27l9.12,25.52h-68.04l39.23,109.79h-38.14L215.94,26.29l-74.5-.77Z"/>
    <polygon class="cls-1" points="274.25 39.43 363.94 39.43 374.02 67.65 320.41 67.65 344.58 135.31 308.5 135.31 274.25 39.43"/>
    <polygon class="cls-1" points="341.47 80.41 378.58 80.41 388.25 107.47 405.77 107.47 381.46 39.43 417.55 39.43 451.8 135.31 361.08 135.31 341.47 80.41"/>
    <polygon class="cls-1" points="422.02 0 470.36 135.31 507.47 135.31 493.11 95.1 525 135.31 559.02 135.31 511.29 79.64 530.29 54.9 524.76 39.43 491.77 39.43 481.24 67.65 457.07 0 422.02 0"/>
  </g>
  <g id="Layer_5" data-name="Layer 5">
    <rect class="cls-2" x="16.35" y="142.43" width="90.15" height="20.75"/>
    <rect class="cls-2" x="207.42" y="142.43" width="673.51" height="20.75"/>
  </g>
  <g id="Layer_7" data-name="Layer 7">
    <path class="cls-1" d="M101.04,41.76h81.44l35.58,95.33h-42.79c0,34.8-65.98,34.8-65.98,0H0v-41.61s-1.03-20.43,22.68-20.43,53.61-.76,53.61-.76l24.74-32.53Z"/>
    <path class="cls-1" d="M613.13,41.77h-53.62l-14.09-39.43h-36.08l48.34,135.31h89.7l-34.25-95.88Zm-28.94,66.89l-13.82-38.67h15.98l13.82,38.67h-15.98Z"/>
    <polygon class="cls-1" points="631.69 41.76 665.94 137.65 756.66 137.65 722.41 41.76 686.33 41.76 710.22 108.65 693.73 108.65 669.83 41.76 631.69 41.76"/>
    <polygon class="cls-1" points="739.94 41.76 744.63 54.91 782.7 89.32 769.49 124.5 774.19 137.64 810.13 137.64 808.16 108.65 827.8 137.64 864.91 137.64 860.21 124.5 818.92 89.71 835.91 56.46 830.66 41.76 794.57 41.76 795.38 69.99 775.87 41.76 739.94 41.76"/>
    <rect class="cls-1" x=".33" y="142.45" width="90.15" height="20.75"/>
    <rect class="cls-1" x="191.4" y="142.45" width="673.51" height="20.75"/>
  </g>
  <g id="Layer_6" data-name="Layer 6">
    <path class="cls-2" d="M127.21,25.52S122.21,0,156.23,0h142.27l9.12,25.52h-68.04l39.23,109.79h-38.14L201.71,26.29l-74.5-.77Z"/>
    <polygon class="cls-2" points="260.01 39.43 349.7 39.43 359.79 67.65 306.18 67.65 330.35 135.31 294.27 135.31 260.01 39.43"/>
    <polygon class="cls-2" points="327.23 80.41 364.34 80.41 374.01 107.47 391.54 107.47 367.23 39.43 403.31 39.43 437.57 135.31 346.84 135.31 327.23 80.41"/>
    <polygon class="cls-2" points="407.78 0 456.12 135.31 493.24 135.31 478.87 95.1 510.76 135.31 544.78 135.31 497.06 79.64 516.05 54.9 510.53 39.43 477.54 39.43 467 67.65 442.83 0 407.78 0"/>
  </g>
</svg>