<?xml version="1.0" encoding="UTF-8"?><svg xmlns="http://www.w3.org/2000/svg" viewBox="0 0 64 64"><defs><style>.e{fill:none;stroke:#fff;}.e,.f,.g{stroke-miterlimit:10;}.f{fill:#fff200;stroke:#963;stroke-width:2px;}.g{fill:#231f20;opacity:.25;stroke:#231f20;}</style></defs><g id="a"><circle class="f" cx="31.5" cy="31.25" r="28.75"/></g><g id="b"><path class="g" d="M23.99,17.68s18.68,1.33,18.68,8.01h12.01v13.35h-5.34c0,5.34-8.01,5.34-8.01,0H25.33c0,5.34-8.01,5.34-8.01,0,0,5.34-8.01,5.34-8.01,0v-6.67h14.68v-14.68Z"/></g><g id="c"><path class="f" d="M23.31,16.38s18.68,1.33,18.68,8.01h12.01v13.35h-5.34c0,5.34-8.01,5.34-8.01,0H24.64c0,5.34-8.01,5.34-8.01,0,0,5.34-8.01,5.34-8.01,0v-6.67h14.68v-14.68Z"/></g><g id="d"><line class="e" x1="26.5" y1="19" x2="26.5" y2="32"/><line class="e" x1="11.5" y1="33" x2="11.5" y2="39"/><line class="e" x1="18.5" y1="37" x2="18.5" y2="39"/><path class="e" d="M21.5,8c-3,0-12,8-14,15"/><line class="e" x1="6.5" y1="25" x2="5.5" y2="29"/></g></svg>